{
	"asset":{
		"generator":"Khronos glTF Blender I/O v4.3.47",
		"version":"2.0"
	},
	"extensionsUsed":[
		"KHR_materials_specular"
	],
	"scene":0,
	"scenes":[
		{
			"name":"Scene",
			"nodes":[
				0
			]
		}
	],
	"nodes":[
		{
			"mesh":0,
			"name":"Parrot",
			"rotation":[
				0.4988889992237091,
				0.5011085271835327,
				-0.5011085271835327,
				0.4988889992237091
			],
			"scale":[
				0.10000000149011612,
				0.10000000149011612,
				0.10000000149011612
			]
		}
	],
	"materials":[
		{
			"doubleSided":true,
			"extensions":{
				"KHR_materials_specular":{
					"specularFactor":0
				}
			},
			"name":"Mat.3",
			"pbrMetallicRoughness":{
				"baseColorFactor":[
					0.1599999964237213,
					0.1599999964237213,
					0.1599999964237213,
					1
				],
				"metallicFactor":0
			}
		},
		{
			"doubleSided":true,
			"extensions":{
				"KHR_materials_specular":{
					"specularFactor":0
				}
			},
			"name":"Mat",
			"pbrMetallicRoughness":{
				"baseColorFactor":[
					0.800000011920929,
					0.1664000004529953,
					0.09600000083446503,
					1
				],
				"metallicFactor":0
			}
		},
		{
			"doubleSided":true,
			"extensions":{
				"KHR_materials_specular":{
					"specularFactor":0
				}
			},
			"name":"Mat.2",
			"pbrMetallicRoughness":{
				"baseColorFactor":[
					0,
					0.2833330035209656,
					1,
					1
				],
				"metallicFactor":0
			}
		},
		{
			"doubleSided":true,
			"extensions":{
				"KHR_materials_specular":{
					"specularFactor":0
				}
			},
			"name":"Mat.1",
			"pbrMetallicRoughness":{
				"baseColorFactor":[
					0.10999999940395355,
					0.8220000267028809,
					1,
					1
				],
				"metallicFactor":0
			}
		},
		{
			"doubleSided":true,
			"extensions":{
				"KHR_materials_specular":{
					"specularFactor":0
				}
			},
			"name":"Mat.4",
			"pbrMetallicRoughness":{
				"baseColorFactor":[
					0.8700000047683716,
					0.8700000047683716,
					0.8700000047683716,
					1
				],
				"metallicFactor":0
			}
		}
	],
	"meshes":[
		{
			"name":"Parrot.002",
			"primitives":[
				{
					"attributes":{
						"POSITION":0,
						"NORMAL":1,
						"TEXCOORD_0":2
					},
					"indices":3,
					"material":0
				},
				{
					"attributes":{
						"POSITION":4,
						"NORMAL":5,
						"TEXCOORD_0":6
					},
					"indices":7,
					"material":1
				},
				{
					"attributes":{
						"POSITION":8,
						"NORMAL":9,
						"TEXCOORD_0":10
					},
					"indices":11,
					"material":2
				},
				{
					"attributes":{
						"POSITION":12,
						"NORMAL":13,
						"TEXCOORD_0":14
					},
					"indices":15,
					"material":3
				},
				{
					"attributes":{
						"POSITION":16,
						"NORMAL":17,
						"TEXCOORD_0":18
					},
					"indices":19,
					"material":4
				}
			]
		}
	],
	"accessors":[
		{
			"bufferView":0,
			"componentType":5126,
			"count":101,
			"max":[
				49.102500915527344,
				15.613499641418457,
				8.477800369262695
			],
			"min":[
				24.48870086669922,
				-15.438599586486816,
				-5.317570209503174
			],
			"type":"VEC3"
		},
		{
			"bufferView":1,
			"componentType":5126,
			"count":101,
			"type":"VEC3"
		},
		{
			"bufferView":2,
			"componentType":5126,
			"count":101,
			"type":"VEC2"
		},
		{
			"bufferView":3,
			"componentType":5123,
			"count":192,
			"type":"SCALAR"
		},
		{
			"bufferView":4,
			"componentType":5126,
			"count":1118,
			"max":[
				49.102500915527344,
				71.50129699707031,
				25.057300567626953
			],
			"min":[
				-116.11799621582031,
				-71.67620086669922,
				-40.81679916381836
			],
			"type":"VEC3"
		},
		{
			"bufferView":5,
			"componentType":5126,
			"count":1118,
			"type":"VEC3"
		},
		{
			"bufferView":6,
			"componentType":5126,
			"count":1118,
			"type":"VEC2"
		},
		{
			"bufferView":7,
			"componentType":5123,
			"count":2844,
			"type":"SCALAR"
		},
		{
			"bufferView":8,
			"componentType":5126,
			"count":210,
			"max":[
				47.78310012817383,
				185.28799438476562,
				28.930700302124023
			],
			"min":[
				-170.20700073242188,
				-185.46299743652344,
				-116.64700317382812
			],
			"type":"VEC3"
		},
		{
			"bufferView":9,
			"componentType":5126,
			"count":210,
			"type":"VEC3"
		},
		{
			"bufferView":10,
			"componentType":5126,
			"count":210,
			"type":"VEC2"
		},
		{
			"bufferView":11,
			"componentType":5123,
			"count":540,
			"type":"SCALAR"
		},
		{
			"bufferView":12,
			"componentType":5126,
			"count":224,
			"max":[
				14.93910026550293,
				134.45399475097656,
				-4.3391499519348145
			],
			"min":[
				-84.4634017944336,
				-134.62899780273438,
				-87.29810333251953
			],
			"type":"VEC3"
		},
		{
			"bufferView":13,
			"componentType":5126,
			"count":224,
			"type":"VEC3"
		},
		{
			"bufferView":14,
			"componentType":5126,
			"count":224,
			"type":"VEC2"
		},
		{
			"bufferView":15,
			"componentType":5123,
			"count":576,
			"type":"SCALAR"
		},
		{
			"bufferView":16,
			"componentType":5126,
			"count":122,
			"max":[
				49.938499450683594,
				16.144399642944336,
				18.282699584960938
			],
			"min":[
				5.588620185852051,
				-16.319299697875977,
				-6.618169784545898
			],
			"type":"VEC3"
		},
		{
			"bufferView":17,
			"componentType":5126,
			"count":122,
			"type":"VEC3"
		},
		{
			"bufferView":18,
			"componentType":5126,
			"count":122,
			"type":"VEC2"
		},
		{
			"bufferView":19,
			"componentType":5123,
			"count":288,
			"type":"SCALAR"
		}
	],
	"bufferViews":[
		{
			"buffer":0,
			"byteLength":1212,
			"byteOffset":0,
			"target":34962
		},
		{
			"buffer":0,
			"byteLength":1212,
			"byteOffset":1212,
			"target":34962
		},
		{
			"buffer":0,
			"byteLength":808,
			"byteOffset":2424,
			"target":34962
		},
		{
			"buffer":0,
			"byteLength":384,
			"byteOffset":3232,
			"target":34963
		},
		{
			"buffer":0,
			"byteLength":13416,
			"byteOffset":3616,
			"target":34962
		},
		{
			"buffer":0,
			"byteLength":13416,
			"byteOffset":17032,
			"target":34962
		},
		{
			"buffer":0,
			"byteLength":8944,
			"byteOffset":30448,
			"target":34962
		},
		{
			"buffer":0,
			"byteLength":5688,
			"byteOffset":39392,
			"target":34963
		},
		{
			"buffer":0,
			"byteLength":2520,
			"byteOffset":45080,
			"target":34962
		},
		{
			"buffer":0,
			"byteLength":2520,
			"byteOffset":47600,
			"target":34962
		},
		{
			"buffer":0,
			"byteLength":1680,
			"byteOffset":50120,
			"target":34962
		},
		{
			"buffer":0,
			"byteLength":1080,
			"byteOffset":51800,
			"target":34963
		},
		{
			"buffer":0,
			"byteLength":2688,
			"byteOffset":52880,
			"target":34962
		},
		{
			"buffer":0,
			"byteLength":2688,
			"byteOffset":55568,
			"target":34962
		},
		{
			"buffer":0,
			"byteLength":1792,
			"byteOffset":58256,
			"target":34962
		},
		{
			"buffer":0,
			"byteLength":1152,
			"byteOffset":60048,
			"target":34963
		},
		{
			"buffer":0,
			"byteLength":1464,
			"byteOffset":61200,
			"target":34962
		},
		{
			"buffer":0,
			"byteLength":1464,
			"byteOffset":62664,
			"target":34962
		},
		{
			"buffer":0,
			"byteLength":976,
			"byteOffset":64128,
			"target":34962
		},
		{
			"buffer":0,
			"byteLength":576,
			"byteOffset":65104,
			"target":34963
		}
	],
	"buffers":[
		{
			"byteLength":65680,
			"uri":"bird.bin"
		}
	]
}
