{
	"asset":{
		"generator":"Khronos glTF Blender I/O v4.2.70",
		"version":"2.0"
	},
	"scene":0,
	"scenes":[
		{
			"name":"Scene",
			"nodes":[
				0
			]
		}
	],
	"nodes":[
		{
			"mesh":0,
			"name":"tronc"
		}
	],
	"materials":[
		{
			"doubleSided":true,
			"name":"Material",
			"pbrMetallicRoughness":{
				"baseColorTexture":{
					"index":0
				},
				"metallicFactor":0,
				"roughnessFactor":0.5
			}
		}
	],
	"meshes":[
		{
			"name":"Cube.001",
			"primitives":[
				{
					"attributes":{
						"POSITION":0,
						"NORMAL":1,
						"TEXCOORD_0":2
					},
					"indices":3,
					"material":0
				}
			]
		}
	],
	"textures":[
		{
			"sampler":0,
			"source":0
		}
	],
	"images":[
		{
			"mimeType":"image/png",
			"name":"Material Base Color",
			"uri":"Material%20Base%20Color.png"
		}
	],
	"accessors":[
		{
			"bufferView":0,
			"componentType":5126,
			"count":691,
			"max":[
				0.8048244714736938,
				0.5024775266647339,
				0.9867690205574036
			],
			"min":[
				-0.9181229472160339,
				-0.5049298405647278,
				-0.8934707045555115
			],
			"type":"VEC3"
		},
		{
			"bufferView":1,
			"componentType":5126,
			"count":691,
			"type":"VEC3"
		},
		{
			"bufferView":2,
			"componentType":5126,
			"count":691,
			"type":"VEC2"
		},
		{
			"bufferView":3,
			"componentType":5123,
			"count":1428,
			"type":"SCALAR"
		}
	],
	"bufferViews":[
		{
			"buffer":0,
			"byteLength":8292,
			"byteOffset":0,
			"target":34962
		},
		{
			"buffer":0,
			"byteLength":8292,
			"byteOffset":8292,
			"target":34962
		},
		{
			"buffer":0,
			"byteLength":5528,
			"byteOffset":16584,
			"target":34962
		},
		{
			"buffer":0,
			"byteLength":2856,
			"byteOffset":22112,
			"target":34963
		}
	],
	"samplers":[
		{
			"magFilter":9729,
			"minFilter":9987
		}
	],
	"buffers":[
		{
			"byteLength":24968,
			"uri":"tile_tronc.bin"
		}
	]
}
