{
	"asset":{
		"generator":"Khronos glTF Blender I/O v4.4.56",
		"version":"2.0"
	},
	"scene":0,
	"scenes":[
		{
			"name":"Scene",
			"nodes":[
				0
			]
		}
	],
	"nodes":[
		{
			"mesh":0,
			"name":"tronc"
		}
	],
	"materials":[
		{
			"doubleSided":true,
			"name":"Material.001",
			"pbrMetallicRoughness":{
				"baseColorFactor":[
					0.0007631866028532386,
					0.17666220664978027,
					0,
					1
				],
				"metallicFactor":0,
				"roughnessFactor":0.5
			}
		}
	],
	"meshes":[
		{
			"name":"Cube.001",
			"primitives":[
				{
					"attributes":{
						"POSITION":0,
						"NORMAL":1,
						"TEXCOORD_0":2
					},
					"indices":3,
					"material":0
				}
			]
		}
	],
	"accessors":[
		{
			"bufferView":0,
			"componentType":5126,
			"count":701,
			"max":[
				0.8048244714736938,
				0.5024775266647339,
				0.9867690205574036
			],
			"min":[
				-0.9181229472160339,
				-0.5049298405647278,
				-0.8934707045555115
			],
			"type":"VEC3"
		},
		{
			"bufferView":1,
			"componentType":5126,
			"count":701,
			"type":"VEC3"
		},
		{
			"bufferView":2,
			"componentType":5126,
			"count":701,
			"type":"VEC2"
		},
		{
			"bufferView":3,
			"componentType":5123,
			"count":1428,
			"type":"SCALAR"
		}
	],
	"bufferViews":[
		{
			"buffer":0,
			"byteLength":8412,
			"byteOffset":0,
			"target":34962
		},
		{
			"buffer":0,
			"byteLength":8412,
			"byteOffset":8412,
			"target":34962
		},
		{
			"buffer":0,
			"byteLength":5608,
			"byteOffset":16824,
			"target":34962
		},
		{
			"buffer":0,
			"byteLength":2856,
			"byteOffset":22432,
			"target":34963
		}
	],
	"buffers":[
		{
			"byteLength":25288,
			"uri":"tile_leaves.bin"
		}
	]
}
