{
	"asset":{
		"generator":"Khronos glTF Blender I/O v4.2.70",
		"version":"2.0"
	},
	"scene":0,
	"scenes":[
		{
			"name":"Scene",
			"nodes":[
				0
			]
		}
	],
	"nodes":[
		{
			"mesh":0,
			"name":"river"
		}
	],
	"materials":[
		{
			"doubleSided":true,
			"name":"Material.001",
			"pbrMetallicRoughness":{
				"baseColorTexture":{
					"index":0
				},
				"metallicFactor":0,
				"roughnessFactor":0.5
			}
		}
	],
	"meshes":[
		{
			"name":"Cube.003",
			"primitives":[
				{
					"attributes":{
						"POSITION":0,
						"NORMAL":1,
						"TEXCOORD_0":2
					},
					"indices":3,
					"material":0
				}
			]
		}
	],
	"textures":[
		{
			"sampler":0,
			"source":0
		}
	],
	"images":[
		{
			"mimeType":"image/png",
			"name":"Material",
			"uri":"Material.png"
		}
	],
	"accessors":[
		{
			"bufferView":0,
			"componentType":5126,
			"count":1913,
			"max":[
				0.8866704702377319,
				0.5490092635154724,
				1.0130577087402344
			],
			"min":[
				-0.9028466939926147,
				-0.5528244376182556,
				-0.9932742714881897
			],
			"type":"VEC3"
		},
		{
			"bufferView":1,
			"componentType":5126,
			"count":1913,
			"type":"VEC3"
		},
		{
			"bufferView":2,
			"componentType":5126,
			"count":1913,
			"type":"VEC2"
		},
		{
			"bufferView":3,
			"componentType":5123,
			"count":3024,
			"type":"SCALAR"
		}
	],
	"bufferViews":[
		{
			"buffer":0,
			"byteLength":22956,
			"byteOffset":0,
			"target":34962
		},
		{
			"buffer":0,
			"byteLength":22956,
			"byteOffset":22956,
			"target":34962
		},
		{
			"buffer":0,
			"byteLength":15304,
			"byteOffset":45912,
			"target":34962
		},
		{
			"buffer":0,
			"byteLength":6048,
			"byteOffset":61216,
			"target":34963
		}
	],
	"samplers":[
		{
			"magFilter":9729,
			"minFilter":9987
		}
	],
	"buffers":[
		{
			"byteLength":67264,
			"uri":"tile_water.bin"
		}
	]
}
