{
	"asset":{
		"generator":"Khronos glTF Blender I/O v4.3.47",
		"version":"2.0"
	},
	"scene":0,
	"scenes":[
		{
			"name":"Scene",
			"nodes":[
				0
			]
		}
	],
	"nodes":[
		{
			"mesh":0,
			"name":"ville_1"
		}
	],
	"materials":[
		{
			"doubleSided":true,
			"name":"Material.018",
			"pbrMetallicRoughness":{
				"metallicFactor":0,
				"roughnessFactor":0.5
			}
		}
	],
	"meshes":[
		{
			"name":"Cube.010",
			"primitives":[
				{
					"attributes":{
						"POSITION":0,
						"NORMAL":1,
						"TEXCOORD_0":2
					},
					"indices":3,
					"material":0
				}
			]
		}
	],
	"accessors":[
		{
			"bufferView":0,
			"componentType":5126,
			"count":1644,
			"max":[
				0.8900338411331177,
				0.7968050241470337,
				1.0340062379837036
			],
			"min":[
				-0.8834384083747864,
				-0.5063766837120056,
				-0.989330530166626
			],
			"type":"VEC3"
		},
		{
			"bufferView":1,
			"componentType":5126,
			"count":1644,
			"type":"VEC3"
		},
		{
			"bufferView":2,
			"componentType":5126,
			"count":1644,
			"type":"VEC2"
		},
		{
			"bufferView":3,
			"componentType":5123,
			"count":3576,
			"type":"SCALAR"
		}
	],
	"bufferViews":[
		{
			"buffer":0,
			"byteLength":19728,
			"byteOffset":0,
			"target":34962
		},
		{
			"buffer":0,
			"byteLength":19728,
			"byteOffset":19728,
			"target":34962
		},
		{
			"buffer":0,
			"byteLength":13152,
			"byteOffset":39456,
			"target":34962
		},
		{
			"buffer":0,
			"byteLength":7152,
			"byteOffset":52608,
			"target":34963
		}
	],
	"buffers":[
		{
			"byteLength":59760,
			"uri":"tile_city_roof.bin"
		}
	]
}
