{
	"asset":{
		"generator":"Khronos glTF Blender I/O v4.2.70",
		"version":"2.0"
	},
	"scene":0,
	"scenes":[
		{
			"name":"Scene",
			"nodes":[
				0
			]
		}
	],
	"nodes":[
		{
			"mesh":0,
			"name":"ville_3",
			"translation":[
				0.08535812795162201,
				1.260621190071106,
				0.0031477827578783035
			]
		}
	],
	"materials":[
		{
			"doubleSided":true,
			"name":"Material.005",
			"pbrMetallicRoughness":{
				"baseColorTexture":{
					"index":0
				},
				"metallicFactor":0,
				"roughnessFactor":0.5
			}
		}
	],
	"meshes":[
		{
			"name":"Cube.008",
			"primitives":[
				{
					"attributes":{
						"POSITION":0,
						"NORMAL":1,
						"TEXCOORD_0":2
					},
					"indices":3,
					"material":0
				}
			]
		}
	],
	"textures":[
		{
			"sampler":0,
			"source":0
		}
	],
	"images":[
		{
			"mimeType":"image/png",
			"name":"ville Base Color",
			"uri":"ville%20Base%20Color.png"
		}
	],
	"accessors":[
		{
			"bufferView":0,
			"componentType":5126,
			"count":2205,
			"max":[
				0.8900338411331177,
				1.114451289176941,
				1.0340062379837036
			],
			"min":[
				-0.8834384083747864,
				-1.353214979171753,
				-0.989330530166626
			],
			"type":"VEC3"
		},
		{
			"bufferView":1,
			"componentType":5126,
			"count":2205,
			"type":"VEC3"
		},
		{
			"bufferView":2,
			"componentType":5126,
			"count":2205,
			"type":"VEC2"
		},
		{
			"bufferView":3,
			"componentType":5123,
			"count":4776,
			"type":"SCALAR"
		}
	],
	"bufferViews":[
		{
			"buffer":0,
			"byteLength":26460,
			"byteOffset":0,
			"target":34962
		},
		{
			"buffer":0,
			"byteLength":26460,
			"byteOffset":26460,
			"target":34962
		},
		{
			"buffer":0,
			"byteLength":17640,
			"byteOffset":52920,
			"target":34962
		},
		{
			"buffer":0,
			"byteLength":9552,
			"byteOffset":70560,
			"target":34963
		}
	],
	"samplers":[
		{
			"magFilter":9729,
			"minFilter":9987
		}
	],
	"buffers":[
		{
			"byteLength":80112,
			"uri":"tile_city_3.bin"
		}
	]
}
