{
	"asset":{
		"generator":"Khronos glTF Blender I/O v4.2.70",
		"version":"2.0"
	},
	"scene":0,
	"scenes":[
		{
			"name":"Scene",
			"nodes":[
				0
			]
		}
	],
	"nodes":[
		{
			"mesh":0,
			"name":"ville_2"
		}
	],
	"materials":[
		{
			"doubleSided":true,
			"name":"paint_tile_city_2",
			"pbrMetallicRoughness":{
				"baseColorTexture":{
					"index":0
				},
				"metallicFactor":0,
				"roughnessFactor":0.5
			}
		}
	],
	"meshes":[
		{
			"name":"Cube.004",
			"primitives":[
				{
					"attributes":{
						"POSITION":0,
						"NORMAL":1,
						"TEXCOORD_0":2
					},
					"indices":3,
					"material":0
				}
			]
		}
	],
	"textures":[
		{
			"sampler":0,
			"source":0
		}
	],
	"images":[
		{
			"mimeType":"image/png",
			"name":"paint_tile_city_2 Base Color",
			"uri":"paint_tile_city_2%20Base%20Color.png"
		}
	],
	"accessors":[
		{
			"bufferView":0,
			"componentType":5126,
			"count":2000,
			"max":[
				0.8900338411331177,
				1.2663609981536865,
				1.0340062379837036
			],
			"min":[
				-0.8834384083747864,
				-0.5063766837120056,
				-0.989330530166626
			],
			"type":"VEC3"
		},
		{
			"bufferView":1,
			"componentType":5126,
			"count":2000,
			"type":"VEC3"
		},
		{
			"bufferView":2,
			"componentType":5126,
			"count":2000,
			"type":"VEC2"
		},
		{
			"bufferView":3,
			"componentType":5123,
			"count":4236,
			"type":"SCALAR"
		}
	],
	"bufferViews":[
		{
			"buffer":0,
			"byteLength":24000,
			"byteOffset":0,
			"target":34962
		},
		{
			"buffer":0,
			"byteLength":24000,
			"byteOffset":24000,
			"target":34962
		},
		{
			"buffer":0,
			"byteLength":16000,
			"byteOffset":48000,
			"target":34962
		},
		{
			"buffer":0,
			"byteLength":8472,
			"byteOffset":64000,
			"target":34963
		}
	],
	"samplers":[
		{
			"magFilter":9729,
			"minFilter":9987
		}
	],
	"buffers":[
		{
			"byteLength":72472,
			"uri":"tile_city_2.bin"
		}
	]
}
