{
	"asset":{
		"generator":"Khronos glTF Blender I/O v4.2.70",
		"version":"2.0"
	},
	"scene":0,
	"scenes":[
		{
			"name":"Scene",
			"nodes":[
				0
			]
		}
	],
	"nodes":[
		{
			"mesh":0,
			"name":"rock"
		}
	],
	"materials":[
		{
			"doubleSided":true,
			"name":"Material.006",
			"pbrMetallicRoughness":{
				"baseColorTexture":{
					"index":0
				},
				"metallicFactor":0,
				"roughnessFactor":0.5
			}
		}
	],
	"meshes":[
		{
			"name":"Cube.007",
			"primitives":[
				{
					"attributes":{
						"POSITION":0,
						"NORMAL":1,
						"TEXCOORD_0":2
					},
					"indices":3,
					"material":0
				}
			]
		}
	],
	"textures":[
		{
			"sampler":0,
			"source":0
		}
	],
	"images":[
		{
			"mimeType":"image/png",
			"name":"rock Base Color",
			"uri":"rock%20Base%20Color.png"
		}
	],
	"accessors":[
		{
			"bufferView":0,
			"componentType":5126,
			"count":1207,
			"max":[
				0.8147740960121155,
				1.1260712146759033,
				0.9462370276451111
			],
			"min":[
				-0.8145655393600464,
				-0.051078200340270996,
				-0.9064262509346008
			],
			"type":"VEC3"
		},
		{
			"bufferView":1,
			"componentType":5126,
			"count":1207,
			"type":"VEC3"
		},
		{
			"bufferView":2,
			"componentType":5126,
			"count":1207,
			"type":"VEC2"
		},
		{
			"bufferView":3,
			"componentType":5123,
			"count":1914,
			"type":"SCALAR"
		}
	],
	"bufferViews":[
		{
			"buffer":0,
			"byteLength":14484,
			"byteOffset":0,
			"target":34962
		},
		{
			"buffer":0,
			"byteLength":14484,
			"byteOffset":14484,
			"target":34962
		},
		{
			"buffer":0,
			"byteLength":9656,
			"byteOffset":28968,
			"target":34962
		},
		{
			"buffer":0,
			"byteLength":3828,
			"byteOffset":38624,
			"target":34963
		}
	],
	"samplers":[
		{
			"magFilter":9729,
			"minFilter":9987
		}
	],
	"buffers":[
		{
			"byteLength":42452,
			"uri":"tile_rock.bin"
		}
	]
}
